<svg xmlns="http://www.w3.org/2000/svg" width="520" height="29" fill="none" viewBox="0 0 520 29"><path stroke="#495732" stroke-linecap="round" stroke-linejoin="round" stroke-miterlimit="1.5" stroke-width="4.05" d="M224.912 26C245.94 24.7168 266.974 23.7279 288.057 23.1656C299.888 22.8504 311.717 22.67 323.554 22.5124C339.551 22.2993 356.405 22.4146 372.051 19.5345C372.877 19.3827 370.372 19.3287 369.53 19.2378C367.771 19.0476 365.99 18.9552 364.227 18.7956C359.838 18.3982 355.472 18.1195 351.067 17.849C335.93 16.919 320.747 16.3032 305.559 16.2054C261.225 15.9194 217.793 15.9685 173.584 19.014C159.394 19.9917 145.254 21.1528 131.085 22.2915C127.829 22.5532 117.987 22.3849 115.721 24.6546C114.832 25.5452 118.75 24.6468 120.264 24.6142C122.916 24.5573 125.545 24.5831 128.195 24.6531C136.637 24.8759 145.09 24.7586 153.527 24.4065C178.388 23.3689 203.349 22.8694 228.245 22.1986C276.605 20.896 324.893 17.7712 373.198 15.7953C387.656 15.2043 402.069 14.0617 416.528 13.5354C424.64 13.2402 435.729 13.9178 443.138 11.0017C444.669 10.399 439.683 10.6762 437.957 10.5084C434.892 10.2107 431.881 9.93982 428.795 9.76179C418.558 9.17176 408.188 9.35609 397.921 8.96209C368.222 7.82191 338.473 7.34376 308.719 7.33062C246.689 7.30436 183.65 7.5996 121.83 11.5138C97.5548 13.0509 68.9598 12.1953 45.7111 18.1963C43.9345 18.655 49.4845 18.2459 51.3628 18.3612C54.9957 18.5845 58.6881 18.3943 62.333 18.5685C73.6908 19.1118 85.0252 18.5179 96.3877 18.3004C130.288 17.6501 164.257 17.5547 198.205 17.0284C235.668 16.4472 272.964 13.6133 310.372 12.2552C353.016 10.7069 395.646 9.79582 438.272 8.05248C458.342 7.2314 478.414 6.98723 498.508 7.02079C501.366 7.02566 514.848 8.23051 516.792 6.59078C518.108 5.48173 512.818 6.1019 510.826 5.87718C506.325 5.36935 501.81 5.09701 497.28 4.76283C485.117 3.86684 472.859 3.19844 460.633 3.07781C423.402 2.71105 386.133 3.78897 348.909 3.26509C307.797 2.68673 266.318 4.38386 225.19 5.1096C188.183 5.76287 151.012 4.3216 113.976 4.51422C77.1977 4.70587 39.7574 9.1505 3 7.16152"/></svg>